<svg xmlns="http://www.w3.org/2000/svg" viewBox="0 0 1980.954 541">
    <g transform="translate(-534 -558)">
        <rect fill="currentColor" width="54" height="240" rx="8" transform="translate(1333 709)"/>
        <rect fill="currentColor" width="54" height="340" rx="8" transform="translate(1255 659)"/>
        <rect fill="currentColor" width="54" height="240" rx="8" transform="translate(534 709)"/>
        <rect fill="currentColor" width="54" height="340" rx="8" transform="translate(612 659)"/>
        <g fill="none" stroke="currentColor" stroke-linejoin="bevel" stroke-width="170" transform="translate(690 558)">
            <rect stroke="none" width="541" height="541" rx="8"/>
            <rect fill="none" x="85" y="85" width="371" height="371" rx="77"/>
        </g>
        <path fill="currentColor" d="M-542.593-15.117h12.656v-102.92h-12.656v-15.381l59.941.176a38.394,38.394,0,0,1,15.205,3.032,39.242,39.242,0,0,1,12.393,8.262,38.358,38.358,0,0,1,8.306,12.349,38.615,38.615,0,0,1,3.032,15.293,27.205,27.205,0,0,1-4.746,15.557A33.176,33.176,0,0,1-462-67.5a42.226,42.226,0,0,1,7.822,5.317,34.336,34.336,0,0,1,5.977,6.636,31.137,31.137,0,0,1,3.823,7.646,25.708,25.708,0,0,1,1.362,8.262,39.7,39.7,0,0,1-3.032,15.557,39.657,39.657,0,0,1-8.306,12.568A38.884,38.884,0,0,1-466.7-3.076,37.608,37.608,0,0,1-481.86,0h-60.732Zm29.883-44.121v44.121h31.025a15.214,15.214,0,0,0,7.822-2.109,23.01,23.01,0,0,0,6.328-5.493,26.21,26.21,0,0,0,4.263-7.69,25.951,25.951,0,0,0,1.538-8.789,18.4,18.4,0,0,0-1.582-7.471,22.1,22.1,0,0,0-4.263-6.416,20.349,20.349,0,0,0-6.328-4.482,18.464,18.464,0,0,0-7.778-1.67Zm0-58.8v43.506h30.234a18.669,18.669,0,0,0,7.866-1.67,20.349,20.349,0,0,0,6.328-4.482,21.76,21.76,0,0,0,4.263-6.5,19.222,19.222,0,0,0,1.582-7.646,23.761,23.761,0,0,0-1.582-8.481,25.568,25.568,0,0,0-4.307-7.427,22.457,22.457,0,0,0-6.372-5.273,15.8,15.8,0,0,0-7.778-2.021ZM-372.7-91.055h29.355v75.938h10.107V0H-359.78V-8.437a49.537,49.537,0,0,1-13.4,7.383A45.044,45.044,0,0,1-388.7,1.582,37.043,37.043,0,0,1-401.133-.4a23.589,23.589,0,0,1-9.492-6.152,28.035,28.035,0,0,1-6.021-10.591,49.19,49.19,0,0,1-2.109-15.293V-75.937h-12.3V-91.055H-401.7v56.689q0,10.459,4.834,15.82t13.887,5.361a36.452,36.452,0,0,0,11.294-1.934,47.474,47.474,0,0,0,11.206-5.361V-75.937H-372.7ZM-311-10.107l46.143-67.324H-293.95V-64.6h-16.172V-91.055H-245v10.371L-291.05-13.711h31.113V-29.18h16.963V0H-311Zm81.211,0,46.143-67.324h-29.092V-64.6h-16.172V-91.055h65.127v10.371l-46.055,66.973h31.113V-29.18h16.963V0H-229.79Zm82.617-80.947h29.707v75.938h13.711V0H-147V-15.117h13.008v-60.82h-13.184Zm10.107-32.256a10.547,10.547,0,0,1,.923-4.351,11.92,11.92,0,0,1,2.461-3.6,11.771,11.771,0,0,1,3.647-2.461,11.061,11.061,0,0,1,4.482-.923,10.547,10.547,0,0,1,4.351.923,11.92,11.92,0,0,1,3.6,2.461,11.92,11.92,0,0,1,2.461,3.6,10.547,10.547,0,0,1,.923,4.351,11.061,11.061,0,0,1-.923,4.482,12.928,12.928,0,0,1-2.461,3.735,11.2,11.2,0,0,1-3.6,2.549,10.547,10.547,0,0,1-4.351.923,11.061,11.061,0,0,1-4.482-.923,11.069,11.069,0,0,1-3.647-2.549,12.928,12.928,0,0,1-2.461-3.735A11.061,11.061,0,0,1-137.065-123.311ZM-28.784-15.117h12.832V-56.689q0-10.459-5.317-15.864t-15.249-5.405a26.907,26.907,0,0,0-11.514,2.725,57.785,57.785,0,0,0-10.986,6.768v53.35h12.832V0H-88.726V-15.117h12.656v-60.82H-88.726V-91.055h29v10.723h.176a68.5,68.5,0,0,1,6.2-4.834,46.132,46.132,0,0,1,6.9-3.955,41.53,41.53,0,0,1,7.515-2.637,34.133,34.133,0,0,1,8.218-.967A40.435,40.435,0,0,1-17.534-90.7a25.77,25.77,0,0,1,10.02,6.152A27.4,27.4,0,0,1-1.143-73.96,46.6,46.6,0,0,1,1.1-58.711v43.594H13.755V0H-28.784ZM97.954-8A32.158,32.158,0,0,1,87.539-.615,32.9,32.9,0,0,1,74.048,2.021,45.506,45.506,0,0,1,56.865-1.187a38.579,38.579,0,0,1-13.8-9.4A43.725,43.725,0,0,1,33.926-25.8a59.769,59.769,0,0,1-3.3-20.61,55.6,55.6,0,0,1,3.164-19.2,42.139,42.139,0,0,1,8.965-14.766,40.221,40.221,0,0,1,13.975-9.492,47.139,47.139,0,0,1,18.193-3.384,45.8,45.8,0,0,1,12.349,1.538A33.436,33.436,0,0,1,97.954-86.4v-4.658H114.3V-3.6q0,21.621-10.239,32.7T72.2,40.166a73.981,73.981,0,0,1-9.932-.7,65.2,65.2,0,0,1-10.239-2.241,64.345,64.345,0,0,1-9.844-3.911,43.389,43.389,0,0,1-8.833-5.8l8.789-13.271a37.768,37.768,0,0,0,6.021,4.219,44.131,44.131,0,0,0,7.251,3.3,55.385,55.385,0,0,0,8,2.153,43.837,43.837,0,0,0,8.262.791,43.351,43.351,0,0,0,11.733-1.406,16.951,16.951,0,0,0,8.174-4.966A22.681,22.681,0,0,0,96.372,8.7,62.326,62.326,0,0,0,97.954-6.68Zm-21.8-4.219a32.054,32.054,0,0,0,7.383-.791A31.334,31.334,0,0,0,89.6-15.073a23.235,23.235,0,0,0,4.79-2.944,23.817,23.817,0,0,0,3.56-3.516V-71.367A27.294,27.294,0,0,0,87.627-77.08a41.432,41.432,0,0,0-12-1.758,27.717,27.717,0,0,0-10.9,2.153A25.622,25.622,0,0,0,55.811-70.4,29.819,29.819,0,0,0,49.79-60.293a39.6,39.6,0,0,0-2.2,13.711A47.577,47.577,0,0,0,49.7-31.729a30.912,30.912,0,0,0,5.889,10.767,24.145,24.145,0,0,0,9.053,6.548A29.64,29.64,0,0,0,76.157-12.217Zm64.424-121.025h53.877a55.451,55.451,0,0,1,16.479,2.329,37.789,37.789,0,0,1,13.008,6.855,30.617,30.617,0,0,1,8.525,11.294A37.7,37.7,0,0,1,235.5-97.207a32.368,32.368,0,0,1-2.988,13.755,34.113,34.113,0,0,1-8.437,11.294,40.712,40.712,0,0,1-13.052,7.646A48.458,48.458,0,0,1,194.106-61.7H170.464v46.582h13.359V0H140.581V-15.117h12.656v-102.92H140.581Zm29.883,15.205v41.924h23.994a29.473,29.473,0,0,0,9.185-1.362,20.553,20.553,0,0,0,7.207-4,18.15,18.15,0,0,0,4.746-6.592,22.814,22.814,0,0,0,1.714-9.141q0-9.844-5.977-15.337t-19.072-5.493ZM247.9-91.055H277.6v75.938h13.711V0H248.071V-15.117h13.008v-60.82H247.9ZM258-123.311a10.547,10.547,0,0,1,.923-4.351,11.92,11.92,0,0,1,2.461-3.6,11.771,11.771,0,0,1,3.647-2.461,11.061,11.061,0,0,1,4.482-.923,10.547,10.547,0,0,1,4.351.923,11.92,11.92,0,0,1,3.6,2.461,11.92,11.92,0,0,1,2.461,3.6,10.547,10.547,0,0,1,.923,4.351,11.061,11.061,0,0,1-.923,4.482,12.928,12.928,0,0,1-2.461,3.735,11.2,11.2,0,0,1-3.6,2.549,10.547,10.547,0,0,1-4.351.923,11.061,11.061,0,0,1-4.482-.923,11.069,11.069,0,0,1-3.647-2.549,12.928,12.928,0,0,1-2.461-3.735A11.061,11.061,0,0,1,258-123.311ZM358.55-15.117h5.186l-18.105-22.5-17.666,22.5h4.482V0H302.212V-15.117h7.383L337.28-47.373,311.265-75.937h-9.229V-91.055h30.234v15.117h-3.428L345.63-54.316l16.963-21.621H358.2V-91.055h30.234v15.117H380.61L354.858-46.23,382.1-15.117h6.68V0H358.55Zm59.063-28.3a40.473,40.473,0,0,0,.571,7.075,36.634,36.634,0,0,0,1.626,6.108,25.286,25.286,0,0,0,10.415,13.228,30.154,30.154,0,0,0,16.216,4.438,48.8,48.8,0,0,0,13.843-1.978,66.491,66.491,0,0,0,14.106-6.2L480.981-9.58A71.6,71.6,0,0,1,462.964-.439a59.613,59.613,0,0,1-18.809,2.988A46.532,46.532,0,0,1,427.061-.527a36.45,36.45,0,0,1-13.535-9.141,42.665,42.665,0,0,1-8.877-15.117,63.108,63.108,0,0,1-3.208-21.094,60.991,60.991,0,0,1,2.725-18.413,43.716,43.716,0,0,1,8.13-15.117,38.858,38.858,0,0,1,13.4-10.239,43.178,43.178,0,0,1,18.633-3.779q10.283,0,17.183,3.12a31.405,31.405,0,0,1,11.25,8.262,35.84,35.84,0,0,1,6.592,11.733,68.887,68.887,0,0,1,3.12,13.447q.439,3.34.571,6.768t.132,6.68Zm25.576-36.3a27.927,27.927,0,0,0-9.976,1.626,20.067,20.067,0,0,0-7.251,4.658,22.7,22.7,0,0,0-4.79,7.427,44.657,44.657,0,0,0-2.681,9.844h47.2a43.7,43.7,0,0,0-1.626-9.4,20.677,20.677,0,0,0-3.911-7.471,17.61,17.61,0,0,0-6.768-4.922A26.073,26.073,0,0,0,443.188-79.717Zm61.523-57.041h29.531V-15.117h13.711V0H504.712V-15.117H517.9V-121.641H504.712Z" transform="translate(1967 905)"/>
    </g>
</svg>
