<?xml version="1.0" standalone="no"?>
<!DOCTYPE svg PUBLIC "-//W3C//DTD SVG 20010904//EN"
 "http://www.w3.org/TR/2001/REC-SVG-20010904/DTD/svg10.dtd">
<svg version="1.0" xmlns="http://www.w3.org/2000/svg"
 width="900.000000pt" height="900.000000pt" viewBox="0 0 900.000000 900.000000"
 preserveAspectRatio="xMidYMid meet">
<metadata>
Created by potrace 1.14, written by Peter Selinger 2001-2017
</metadata>
<g transform="translate(0.000000,900.000000) scale(0.100000,-0.100000)"
fill="#000000" stroke="none">
<path d="M3179 7185 c-654 -102 -1168 -570 -1330 -1211 -49 -197 -51 -236 -47
-1549 4 -1196 5 -1222 25 -1315 115 -518 419 -918 868 -1140 209 -104 370
-149 600 -169 162 -14 2258 -14 2420 0 281 24 525 107 755 257 367 237 609
593 707 1036 l27 121 4 1205 c3 1248 1 1331 -38 1511 -43 198 -146 429 -267
598 -252 351 -647 592 -1078 656 -140 21 -2511 21 -2646 0z m2329 -2687 l-3
-1003 -1002 -3 -1003 -2 0 1005 0 1005 1005 0 1005 0 -2 -1002z"/>
<path d="M1041 6164 l-21 -27 0 -1643 0 -1643 24 -28 24 -28 222 0 222 0 24
28 24 28 -2 1651 -3 1650 -24 19 c-21 17 -42 19 -246 19 l-224 0 -20 -26z"/>
<path d="M7471 6164 l-21 -27 0 -1643 0 -1643 24 -28 24 -28 222 0 222 0 24
28 24 28 -2 1651 -3 1650 -24 19 c-21 17 -42 19 -246 19 l-224 0 -20 -26z"/>
<path d="M261 5664 c-21 -27 -21 -28 -21 -1170 l0 -1143 24 -28 24 -28 222 0
222 0 24 28 24 28 -2 1151 -3 1150 -24 19 c-21 17 -42 19 -246 19 l-224 0 -20
-26z"/>
<path d="M8251 5664 c-21 -27 -21 -28 -21 -1170 l0 -1143 24 -28 24 -28 222 0
222 0 24 28 24 28 -2 1151 -3 1150 -24 19 c-21 17 -42 19 -246 19 l-224 0 -20
-26z"/>
</g>
</svg>
